<svg width="75" height="75" viewBox="0 0 75 75" fill="none" xmlns="http://www.w3.org/2000/svg">
<g clip-path="url(#clip0_194140_170)">
<path d="M62.286 31.5181L38.2692 45.1983C37.8369 45.4526 37.303 45.4526 36.858 45.1983L12.8412 31.5181C11.9003 30.9841 11.9003 29.6237 12.8412 29.077L36.858 15.3967C37.2902 15.1424 37.8242 15.1424 38.2692 15.3967L62.286 29.077C63.2268 29.6109 63.2268 30.9713 62.286 31.5181Z" fill="black"/>
<path d="M58.1285 36.1205V47.3978C58.1285 47.9064 57.8615 48.3641 57.4165 48.6184L38.2692 59.527C37.8369 59.7813 37.3029 59.7813 36.858 59.527L17.7106 48.6184C17.2657 48.3641 16.9987 47.9064 16.9987 47.3978V36.1205L27.6149 42.1597L36.858 47.436C37.2902 47.6903 37.8242 47.6903 38.2692 47.436L47.5123 42.1597L58.1285 36.1205Z" fill="black"/>
<path d="M69.3168 17.5072L69.9779 17.0495C70.7789 16.4901 70.6772 15.2823 69.7999 14.8627L64.5363 12.358C63.6464 11.9385 62.642 12.6377 62.7182 13.6167L63.2268 19.427C63.3158 20.3933 64.4219 20.9146 65.2229 20.3552L66.1637 19.7067C74.5296 33.1836 72.2792 51.1358 60.5823 62.0699C49.0761 72.8259 31.34 74.1355 18.4099 65.1848C17.5453 64.5872 16.3502 64.8034 15.7527 65.6679C15.1551 66.5325 15.3712 67.7276 16.2358 68.3252C22.6309 72.7496 30.0686 74.9237 37.4936 74.9237C46.7876 74.9237 56.0561 71.5164 63.1887 64.8542C76.246 52.6361 78.7633 32.5352 69.3168 17.5072Z" fill="black"/>
<path d="M58.8912 6.59834C44.4989 -3.36945 24.7541 -1.90734 11.9383 10.0693C-1.44952 22.5926 -3.85247 42.6044 6.12804 57.8867L5.19991 58.5224C4.39893 59.0818 4.50064 60.2896 5.37791 60.7092L10.6415 63.2139C11.5315 63.6334 12.5359 62.9342 12.4596 61.9552L11.9511 56.1449C11.8621 55.1786 10.7559 54.6573 9.95496 55.2167L9.2684 55.6999C0.394015 41.9815 2.54268 24.0674 14.5447 12.8536C26.0509 2.09758 43.787 0.775319 56.7171 9.7387C57.5817 10.3363 58.7768 10.1201 59.3744 9.25557C59.9719 8.39102 59.7558 7.1959 58.8912 6.59834Z" fill="black"/>
</g>
<defs>
<clipPath id="clip0_194140_170">
<rect width="75" height="74.9237" fill="white"/>
</clipPath>
</defs>
</svg>
